HIERARCHY
ROOT Hips
{
    OFFSET 0.000000 0.000000 0.000000
    CHANNELS 6 Xposition Yposition Zposition Zrotation Xrotation Yrotation
    JOINT Spine
    {
        OFFSET -0.000000 14.517291 0.000000
        CHANNELS 3 Zrotation Xrotation Yrotation
        JOINT Spine1
        {
            OFFSET -0.000000 37.558300 0.000000
            CHANNELS 3 Zrotation Xrotation Yrotation
            JOINT Neck
            {
                OFFSET -0.000000 37.404057 3.400369
                CHANNELS 3 Zrotation Xrotation Yrotation
                JOINT Head
                {
                    OFFSET -0.000000 24.785618 -3.540803
                    CHANNELS 3 Zrotation Xrotation Yrotation
                    End Site
                    {
                        OFFSET -0.000000 35.408028 0.000000
                    }
                }
            }
            JOINT LeftShoulder
            {
                OFFSET 6.992933 33.973492 -0.192664
                CHANNELS 3 Zrotation Xrotation Yrotation
                JOINT LeftArm
                {
                    OFFSET 21.527611 0.000000 0.000000
                    CHANNELS 3 Zrotation Xrotation Yrotation
                    JOINT LeftForeArm
                    {
                        OFFSET 56.353916 0.000000 0.000000
                        CHANNELS 3 Zrotation Xrotation Yrotation
                        JOINT LeftHand
                        {
                            OFFSET 47.774071 0.000000 0.000000
                            CHANNELS 3 Zrotation Xrotation Yrotation
                            End Site
                            {
                                OFFSET 26.556021 0.000000 0.000000
                            }
                        }
                    }
                }
            }
            JOINT RightShoulder
            {
                OFFSET -7.065357 33.973492 -0.192664
                CHANNELS 3 Zrotation Xrotation Yrotation
                JOINT RightArm
                {
                    OFFSET -21.527611 0.000000 0.000000
                    CHANNELS 3 Zrotation Xrotation Yrotation
                    JOINT RightForeArm
                    {
                        OFFSET -56.353916 0.000000 0.000000
                        CHANNELS 3 Zrotation Xrotation Yrotation
                        JOINT RightHand
                        {
                            OFFSET -47.774071 0.000000 0.000000
                            CHANNELS 3 Zrotation Xrotation Yrotation
                            End Site
                            {
                                OFFSET -26.556021 0.000000 0.000000
                            }
                        }
                    }
                }
            }
        }
    }
    JOINT LeftUpLeg
    {
        OFFSET 17.704014 0.000000 0.000000
        CHANNELS 3 Zrotation Xrotation Yrotation
        JOINT LeftLeg
        {
            OFFSET -0.000000 -81.181816 0.000000
            CHANNELS 3 Zrotation Xrotation Yrotation
            JOINT LeftFoot
            {
                OFFSET -0.000000 -62.821102 0.000000
                CHANNELS 3 Zrotation Xrotation Yrotation
                JOINT LeftToeBase
                {
                    OFFSET -0.000000 -11.507608 26.556021
                    CHANNELS 3 Zrotation Xrotation Yrotation
                    End Site
                    {
                        OFFSET -0.000000 0.000000 7.081605
                    }
                }
            }
        }
    }
    JOINT RightUpLeg
    {
        OFFSET -17.704014 0.000000 0.000000
        CHANNELS 3 Zrotation Xrotation Yrotation
        JOINT RightLeg
        {
            OFFSET -0.000000 -81.181816 0.000000
            CHANNELS 3 Zrotation Xrotation Yrotation
            JOINT RightFoot
            {
                OFFSET -0.000000 -62.821102 0.000000
                CHANNELS 3 Zrotation Xrotation Yrotation
                JOINT RightToeBase
                {
                    OFFSET -0.000000 -11.507608 26.556021
                    CHANNELS 3 Zrotation Xrotation Yrotation
                    End Site
                    {
                        OFFSET -0.000000 0.000000 7.081605
                    }
                }
            }
        }
    }
}
MOTION
Frames:    12
Frame Time:    0.008333
39.604610    147.239166    47.691166    6.748939    -2.421827    -50.907127    3.248959    1.944740    -3.343529    -3.861536    -0.238213    -1.104664    14.987583    1.161347    8.882764    -13.478234    4.713137    5.790647    9.716382    5.059134    -17.293938    -13.118755    -3.850910    -24.169155    12.964972    -1.419758    -52.189613    -0.028592    4.967912    -40.149452    -11.594468    -1.733482    -7.256732    26.539528    -25.154556    36.607986    6.908727    -22.001638    108.596954    14.688619    -27.068232    30.865417    33.781116    -13.606352    3.665154    -21.392696    33.790741    -4.735681    -28.412493    -12.623448    49.778721    0.000000    0.000000    0.000000    -32.721863    -27.098047    -14.559387    7.721547    51.286938    -6.792727    12.954885    -16.678545    -4.032350    0.000000    0.000000    0.000000    
38.601131    147.656601    46.699177    6.867257    -2.506005    -50.905888    3.127141    1.898483    -3.364871    -3.925406    -0.304496    -1.115348    14.884471    1.153938    8.881721    -13.352531    4.847966    5.831730    9.700717    5.087676    -17.156569    -13.103897    -3.579287    -24.147772    13.076468    -1.717130    -52.139820    -0.182069    4.775403    -40.034992    -11.550194    -1.646277    -7.208958    26.589680    -25.071960    36.753239    6.981175    -21.926701    108.365700    14.503633    -27.110672    30.747583    33.933159    -13.747722    3.406524    -20.824112    33.262981    -4.961486    -29.706766    -10.943836    50.605072    0.000000    0.000000    0.000000    -32.367542    -27.065519    -14.514858    7.912815    51.362801    -7.023450    12.746265    -16.975353    -3.741098    0.000000    0.000000    0.000000    
37.646614    148.082306    45.696129    7.009521    -2.545179    -50.901531    3.042358    1.890357    -3.422440    -4.006855    -0.480714    -1.141438    14.693325    1.157378    8.903015    -13.090780    4.993068    5.924576    9.686552    5.156754    -17.019726    -13.135119    -3.281616    -24.153330    13.405026    -1.913832    -51.977573    -0.149227    4.706525    -39.982708    -11.502998    -1.604017    -7.115856    26.633812    -24.899656    36.886513    6.990055    -21.942526    108.097466    14.360157    -27.147251    30.604286    34.061970    -13.955450    3.235690    -20.266563    32.705822    -5.126215    -30.792349    -9.330434    51.545876    0.000000    0.000000    0.000000    -31.995972    -27.098452    -14.444490    8.164280    51.387894    -7.296996    12.454835    -17.169212    -3.587928    0.000000    0.000000    0.000000    
36.700356    148.490982    44.711525    7.155599    -2.566545    -50.890854    2.948772    1.819125    -3.474987    -4.077658    -0.578765    -1.163899    14.641082    1.152539    8.935932    -13.031029    5.114748    5.985557    9.706167    5.203728    -16.895885    -13.151598    -3.119861    -24.132198    13.312026    -2.320873    -51.993191    -0.510852    4.388424    -40.084850    -11.452969    -1.531855    -7.051500    26.673115    -24.734821    37.058868    7.037788    -21.997171    107.819672    14.185640    -27.270582    30.496319    34.155930    -14.205675    3.295585    -19.584356    32.255764    -5.450417    -31.698008    -7.558851    52.332874    0.000000    0.000000    0.000000    -31.617338    -27.132442    -14.390007    8.399083    51.477879    -7.599520    12.187357    -17.451464    -3.397643    0.000000    0.000000    0.000000    
35.777843    148.892715    43.741379    7.282995    -2.587610    -50.898117    2.844773    1.780866    -3.489210    -4.110638    -0.682390    -1.173375    14.579190    1.161946    8.977562    -12.971087    5.187878    6.053262    9.683639    5.237732    -16.877836    -13.117277    -2.993152    -24.045288    13.609227    -2.224261    -51.958263    -0.334755    4.562253    -39.978714    -11.420259    -1.486822    -7.019830    26.730257    -24.617758    37.223530    7.153570    -21.944466    107.552742    14.013418    -27.373709    30.397633    34.209389    -14.446810    3.426091    -18.906538    31.827454    -5.609096    -32.617664    -5.999667    53.208302    0.000000    0.000000    0.000000    -31.193348    -27.165243    -14.228311    8.670419    51.454536    -8.048605    11.908281    -17.620134    -3.210748    0.000000    0.000000    0.000000    
34.910347    149.276840    42.793118    7.424651    -2.581047    -50.896713    2.750003    1.771233    -3.531633    -4.126875    -0.863681    -1.194736    14.598744    1.248623    9.005982    -13.067545    5.208717    6.084495    9.661907    5.367933    -16.813667    -13.060276    -3.086586    -24.014051    13.585147    -2.147302    -52.038948    -0.287262    4.621830    -39.961899    -11.385616    -1.457794    -6.930812    26.716187    -24.435827    37.344662    7.209923    -22.007421    107.247826    13.896811    -27.494925    30.288740    34.238697    -14.764162    3.616737    -18.364220    31.443796    -5.449753    -33.131634    -4.462307    54.045116    0.000000    0.000000    0.000000    -30.769516    -27.232918    -14.063480    8.864373    51.428444    -8.341120    11.657911    -17.768175    -3.094098    0.000000    0.000000    0.000000    
34.055878    149.642487    41.877155    7.528340    -2.576119    -50.891193    2.676069    1.757256    -3.587417    -4.114421    -0.959493    -1.217162    14.514082    1.306915    9.062219    -13.066283    5.149336    6.156120    9.603612    5.417913    -16.737543    -12.995495    -3.006596    -23.935129    13.773980    -2.140153    -52.119968    -0.143547    4.682634    -39.977791    -11.420913    -1.448882    -6.854054    26.777430    -24.365746    37.488953    7.306303    -21.918385    106.962730    13.671208    -27.547560    30.187510    34.275494    -15.063958    3.781293    -18.092728    31.106476    -4.903677    -32.943413    -2.941470    54.666771    0.000000    0.000000    0.000000    -30.304544    -27.276588    -13.959738    8.892067    51.426899    -8.337248    11.391067    -17.941204    -3.104315    0.000000    0.000000    0.000000    
33.234898    149.988800    40.979427    7.626661    -2.571508    -50.871944    2.605537    1.761625    -3.617132    -4.146045    -1.038140    -1.230477    14.536694    1.359700    9.110048    -13.123486    5.049876    6.192805    9.659223    5.455279    -16.723072    -13.017113    -3.084908    -23.973112    13.919699    -2.030482    -52.072407    -0.072949    4.831607    -40.080029    -11.361953    -1.404394    -6.833693    26.748535    -24.248310    37.636227    7.359953    -22.023726    106.675034    13.719630    -27.654787    30.188593    34.282524    -15.382312    3.999047    -17.984264    30.794645    -4.154827    -32.175507    -1.491916    55.109272    0.000000    0.000000    0.000000    -29.817514    -27.320753    -13.794594    8.919016    51.411324    -8.480912    11.153662    -18.103266    -3.080181    0.000000    0.000000    0.000000    
32.442493    150.310562    40.120159    7.698562    -2.583541    -50.854885    2.546354    1.783229    -3.644703    -4.167525    -1.088809    -1.241869    14.565909    1.380358    9.170763    -13.203292    4.987340    6.239740    9.650086    5.477582    -16.729208    -12.937927    -3.118808    -23.909233    14.002515    -1.973013    -52.175289    0.013896    4.914064    -40.144001    -11.365829    -1.390611    -6.784695    26.759512    -24.149836    37.746277    7.441408    -22.092398    106.456833    13.729939    -27.784775    30.152744    34.255745    -15.680864    4.267663    -17.972511    30.511549    -3.429939    -31.087248    0.057685    55.513073    0.000000    0.000000    0.000000    -29.323568    -27.349487    -13.568121    8.957402    51.463593    -8.551866    10.891669    -18.334995    -3.179048    0.000000    0.000000    0.000000    
31.680706    150.607971    39.283688    7.748598    -2.601573    -50.797005    2.444785    1.838949    -3.686108    -4.111465    -1.131003    -1.256767    14.581779    1.376447    9.201986    -13.286736    4.929192    6.254548    9.657290    5.520988    -16.746073    -12.901661    -3.239005    -23.987234    14.044747    -1.878402    -52.116524    0.060066    5.003482    -40.255646    -11.377558    -1.392075    -6.728618    26.724573    -24.080202    37.775978    7.684944    -22.179636    106.356979    13.995774    -28.061514    30.299026    34.220409    -16.019175    4.531064    -18.083406    30.332594    -2.781689    -29.840221    2.003477    55.325554    0.000000    0.000000    0.000000    -28.815540    -27.343180    -13.345758    8.924569    51.464256    -8.449491    10.586543    -18.562834    -3.430814    0.000000    0.000000    0.000000    
30.937927    150.877792    38.474510    7.786108    -2.637241    -50.718948    2.351404    1.919406    -3.743259    -4.081407    -1.130070    -1.275486    14.546572    1.387409    9.238390    -13.286309    4.722714    6.275017    9.679355    5.490312    -16.714371    -12.859956    -3.281660    -24.040535    14.103923    -1.825390    -52.186184    0.141704    5.066696    -40.194561    -11.360260    -1.392088    -6.712011    26.681484    -24.045467    37.870819    7.781205    -22.233082    106.196724    13.998975    -28.197428    30.316507    34.138378    -16.389059    4.917274    -18.143593    30.282837    -2.526650    -28.916708    3.352984    54.653389    0.000000    0.000000    0.000000    -28.328016    -27.313663    -13.119344    8.906725    51.479176    -8.385669    10.298409    -18.808514    -3.692125    0.000000    0.000000    0.000000    
30.218882    151.123093    37.695580    7.803007    -2.700077    -50.617661    2.260072    2.015328    -3.801579    -4.044895    -1.111307    -1.293681    14.467531    1.342892    9.234221    -13.245635    4.622936    6.268456    9.618382    5.436542    -16.774940    -12.733187    -3.351340    -24.038540    14.110007    -1.721139    -52.146896    0.220938    5.138389    -40.331032    -11.424640    -1.354299    -6.699936    26.711664    -24.026104    37.953930    7.767901    -22.301643    106.048653    14.028798    -28.215796    30.309977    34.018826    -16.769846    5.359170    -18.248049    30.319363    -2.575172    -28.205925    3.825468    53.555855    0.000000    0.000000    0.000000    -27.860550    -27.246273    -12.860645    8.910290    51.493645    -8.428164    10.030618    -19.039785    -3.893708    0.000000    0.000000    0.000000    
